<svg xmlns="http://www.w3.org/2000/svg" viewBox="0 0 524.16 364.35"><defs><style>.cls-1{fill:#8e6d38;}.cls-1,.cls-2,.cls-22,.cls-23,.cls-24,.cls-3,.cls-4,.cls-5,.cls-6,.cls-7,.cls-8,.cls-9{stroke:#000;}.cls-1,.cls-10,.cls-2,.cls-22,.cls-23,.cls-24,.cls-3,.cls-4,.cls-5,.cls-6,.cls-7,.cls-8,.cls-9{stroke-miterlimit:10;}.cls-14,.cls-2{fill:#bec6e5;}.cls-3{fill:#d6c490;}.cls-4{fill:#a6b672;}.cls-5{fill:#706447;}.cls-6{fill:#bfd28f;}.cls-7{fill:#8c9363;}.cls-8{fill:#b5c184;}.cls-9{fill:#78824b;}.cls-10{fill:#f4f4f4;stroke:#231f20;}.cls-11{fill:#51402b;}.cls-12{fill:#868687;}.cls-13{fill:#847055;}.cls-15{fill:#94959b;}.cls-16{fill:#6f7076;}.cls-17{fill:#66533f;}.cls-18{fill:#877460;}.cls-19,.cls-24{fill:#77634c;}.cls-20{fill:#606472;}.cls-21{fill:#493927;}.cls-22{fill:#efefef;}.cls-23{fill:#84715e;}</style></defs><title>Asset 1</title><g id="Layer_2" data-name="Layer 2"><g id="Layer_12" data-name="Layer 12"><polygon class="cls-1" points="390.45 241.16 348.75 279.18 315.08 326.89 276.29 352.94 233.17 363.81 191.11 342.07 167.03 305.07 130.81 283.39 97.28 252.64 80.22 217.58 51.36 187.78 19.96 130.85 89.8 159.13 138.47 175.47 432.8 176.74 390.45 241.16"/><polygon class="cls-1" points="348.75 279.18 390.45 241.16 432.8 176.74 498.75 123.7 470.5 181.66 408.13 254.47 374.67 285.92 334.46 299.43 348.75 279.18"/><polyline class="cls-1" points="138.47 175.47 148.3 206.13 174.3 258.13 217.8 307.63 231.8 340.13 243.7 361.16"/></g><g id="Grass"><path class="cls-2" d="M509.47,141c-8,5.57.67,16.69-22.67,24.33-13.08,4.28-19,12-39,21.87-14.12,7-42.73,22.42-54,23.07-23.41,1.35-87,1.17-112.15,1.17-30.06,0-56,1.4-83.49-.5-32.09-2.23-43.59-15-63.69-26.4-16.54-9.34-40.41-7.18-58.17-12.27-15.87-4.55-27-19.69-50.17-20.75C6,150.59-2,135.77,1.16,123.9c3.37-12.72,35.72-23.56,40-25.74C67.8,84.53,105.5,77.51,110.47,77.08,125.39,75.8,138.21,59,177.05,59c30.75,0,50.65-2.48,59.77,0,25.06,6.81,72.36,5.15,85.08,4.89,9.87-.2,47,5.86,71.57,7.36a161.51,161.51,0,0,1,57,14c8.81,4.08,26.25,4.34,38,14.93,9.7,8.74,31.83,10.3,34.83,23.76C525,131.63,520.53,133.29,509.47,141Z"/><path class="cls-3" d="M497.82,122.7c-12.18,2.88-4.26,7.34-11.65,9.32C473,135.56,482,136.3,475.44,142.9c-11.93,12-18.74,23.06-41.69,26-10.18,1.31-21.37,22.59-39.47,23.32-10.92.44-44.59,7-52.82,7.44-17.09,1-43.33.08-61.71.08-21.94,0-45.17-5.58-65-1.26-22,4.79-45.11-16.79-56.25-23.2-11.78-6.78-42.65-9.84-57.51-17.7-11-5.84-26.69-4.17-43.89-10.25-3.42-1.21-32.84-9.78-37.89-18.56S54,115.52,59.93,107c10.4-15,65.59-17.91,69.22-18.22,10.9-.91,16.11-7.25,43.52-12.91,18.85-3.89,59.34-4.29,66-2.53,18.29,4.84,46.63,0,55.92-.23,7.21-.14,42.32,2,60.22,3s38.16,7.53,50.13,10.2c7.14,1.6,43.52,7.89,49.71,13.12,7.22,6.11,18,9.65,27,12.09C492.22,114.41,507.26,120.47,497.82,122.7Z"/><g id="Layer_3" data-name="Layer 3"><path class="cls-4" d="M474.37,125.48c-9.92,8-19.16,9-21.94,11.64-4.62,4.38-4.93,7.94-16.77,16.27-12.57,8.85-36.75,11.32-56.79,13.71-15.18,1.81-33.59,15.34-50.92,16.25-14.93.78-39-8.35-55-8.35-19.17,0-52.43,7.36-69.93,6.26-20.46-1.28-23.65-18.48-40.72-21-14.63-2.18-49.59-25.07-61-22.46-25.05,5.75-45.07-5.39-44.49-14.56,1-15.84,63.92-23.94,71.39-26.13,13.73-4,14.12-12.32,41.87-12.64,16.65-.19,53.56.32,59.38,1.74,16,3.92,40.73,0,48.83-.19,6.29-.12,37,1.58,52.59,2.44s34.65-1.54,45.23-1.1c9.81.41,20.41.54,34,8.62,16.41,9.76,34.62,19.73,45.87,19.73C465,115.7,477.25,123.18,474.37,125.48Z"/></g><path class="cls-5" d="M421.87,128.41c-8.82-3.33-21.46-1.74-25.83-1.55a127.61,127.61,0,0,1-17.62-3.31c-6.69-1.81-8.66,1.23-5.3,8.71,2.69,6,11.61,1.11,24.14,3.07C404.52,136.45,443.18,136.46,421.87,128.41Z"/><path class="cls-5" d="M407.43,144c-3-1-17.79,2.91-21.1,2.89-4.21,0-8.06.43-9.94.54A100.15,100.15,0,0,1,363,145.24c-5.09-1.24-18,8.65-12.4,12.42,4,2.66,17.11-5.32,26.67-4a91.58,91.58,0,0,0,13.1.1c6.28-.35,16.63-.7,15-2.59C404.74,150.49,410,144.9,407.43,144Z"/><path class="cls-5" d="M198,150c-2.63-2.43-22.81-12-29.67-8-3,1.71-29.56,2.05-29.87,5.65-.18,2,26.83,6.59,41.38,7C182,154.7,200.23,152.06,198,150Z"/><path class="cls-6" d="M410.68,122.61c-.88,7-28.08,14.15-33.29,19.39-3.46,3.47-16.22-4.4-21-4-4.11.3-11.84,2.25-16.65,1.82-5.63-.5-7.44-3-9.81-5.33-6.5-6.37.25-7.32.25-11.25,0-1.57-4.2-22.82,4.13-15.3,4,3.62,18.61-4.21,23.38-5.74,4.21-1.35,21,7,26.38,10.83C391.78,118.46,411.2,118.47,410.68,122.61Z"/><path class="cls-7" d="M212.49,156.37c-4.86.17-27.27,2.74-32.85.1-6-2.85-19.17,2.65-32.19-2.92-8.43-3.6,16.19-4.15,22-5.94.83-.25,21.59-8.11,31.75-4.74,5.94,2,10-2.39,14.82-4,6.13-2,7.19-.92,12.51.33C238.57,141.57,218.13,156.17,212.49,156.37Z"/><path class="cls-8" d="M394.05,148.61c-9.36,3.6-24.49-.51-32.22,3.85-5.13,2.89-6.93,10.64-15.11,11.42-6.19.59-21.22-1.63-28.29-1.33-6.09.25-13.58-1.25-20.13-1.25-7.82,0-10.85,2.1-18,1.74-8.35-.42-25,.09-31.92-.74-6-.71-28.37,2.83-36.75,2.25C160,161,192.27,153,201.8,149.89c7.17-2.36,23.58-4.82,26.58-9,3.38-4.66,8.8-5,27.32-4.42,6.79.2,11.87-5.7,24.23.57,5.94,3,7.58-3.87,19.2-2.76,6.85.65,15.82,3.22,22.2,3.5s10,1.12,15.66,1.65c8,.74,8.64.36,14.67,1.5C364.42,143.37,407.93,143.27,394.05,148.61Z"/><path class="cls-9" d="M212.44,142.61c-25.42,3.33-55.79-.18-61.92-.69-43.77-3.6-76.1-19.49-36.13-27.74,9.72-2,49.77-4.47,58.58-15.48,7.35-9.19,34.16,6.56,42.57,12.05C223.57,116,221.53,141.41,212.44,142.61Z"/><path class="cls-6" d="M123.43,124.66c-5.12-5.78,36.8-14.37,47.5-11.69,7.63,1.91-4.68-9.45,8.25-14.4,5.74-2.2,36.57,40.54,29.81,43.47-6,2.59-32.28-3.53-41-6.88C155.56,130.38,126.79,128.46,123.43,124.66Z"/></g><g id="Clouds_2" data-name="Clouds 2"><path class="cls-10" d="M293.83,6.42c-19.19-.77-30.86.09-35,.5a5,5,0,0,1-3.12-.74c-5-3.08-22.62-11.93-43.74,1.65-25,16.08-5.71,21.35-5.71,21.35s-21.57,10.44-14.57,15S226,49.94,226,49.94s18,.41,27.48-5.72c8.31-5.35,21.29-3,24.44-2.35.72.15,1.45.27,2.18.35,5,.56,20.74,1.63,20.74-7.71,0-3.9.45-6.59,3-9.3,4.61-5,11.92-8.89,6.07-12.6l-3.54-2.25A25.1,25.1,0,0,0,293.83,6.42Z"/><path class="cls-10" d="M348.18,17.08a69.6,69.6,0,0,1,19.19,2.51,12,12,0,0,0,6.64,0c4.94-1.41,13.92-3.55,18.92-2.22,7.15,1.91,14.44,11.22,14.44,11.22s10.39,12.15-11.61,15.72a48,48,0,0,1-15.41.21,12,12,0,0,0-6,.51c-4.36,1.54-12.3,3.62-15.42-.3-4.41-5.53-18.43,2.29-19.53-3.21s-16-8.48-9.63-15.74c5-5.68,12.7-7.8,15.83-8.46A12.18,12.18,0,0,1,348.18,17.08Z"/></g><g id="Mountain"><polygon class="cls-11" points="237.95 88.83 237.84 88.96 237.84 88.95 211.63 117.3 236.03 103.92 264.44 97.79 248.74 87 237.95 88.83"/><polygon class="cls-12" points="320.48 92.8 313.88 88.7 309.05 75.53 296.21 65.16 293.04 57.9 273.75 65.35 272.09 65.35 281.71 76.53 299.38 90.54 320.48 92.8"/><polygon class="cls-13" points="323.06 93.22 332.12 98.84 349.35 102.78 361.48 110.44 341.29 89.12 318.42 77.58 321.44 85.02 323.06 93.22"/><polygon class="cls-14" points="266.6 45.55 278.98 49.27 293.3 47.68 299.4 50.71 295.16 40.81 283.42 28.81 271.37 25.22 254.8 38.49 240.24 59.96 254.87 50.59 266.6 45.55"/><polygon class="cls-15" points="288.82 49.18 291.15 51.1 297.03 64.53 309.89 74.93 314.7 88.04 321.9 92.5 320.49 85.31 315.2 72.31 303.85 61.08 300.01 52.13 293.12 48.71 288.82 49.18"/><polygon class="cls-16" points="280.56 101.15 298.29 90.96 281.05 77.29 281.05 77.29 280.99 77.22 270.83 65.42 254.71 70.31 239.03 87.64 248.97 85.95 276.17 104.64 280.56 101.15"/><polygon class="cls-17" points="254.16 118.79 269 110.34 275.35 105.29 265.57 98.57 236.31 104.88 209.49 119.61 187.87 142.99 217.77 145.06 233.3 132.12 254.16 118.79"/><polygon class="cls-18" points="331.67 99.73 322.44 94.01 299.29 91.54 281.12 101.97 277.03 105.23 277.03 105.23 270.45 110.46 290.34 114.14 310.01 120.45 325.45 131.53 356.76 135.25 369.7 140.93 381.71 136.1 388.56 128.71 348.89 103.67 331.67 99.73"/><polygon class="cls-19" points="325.08 132.49 309.49 121.31 290.1 115.11 269.36 111.28 254.68 119.65 233.89 132.93 219.15 145.21 239.68 147.62 320.71 147.61 367.86 141.21 356.42 136.19 325.08 132.49"/><polygon class="cls-20" points="237.55 87.78 254.15 69.43 271.17 64.28 271.23 64.35 273.56 64.35 292.63 56.99 290.33 51.72 287.44 49.34 278.88 50.29 266.66 46.61 255.34 51.47 238.79 62.07 216.04 82.84 221.89 82.05 237.55 87.78"/><polygon class="cls-21" points="221.78 83.07 204.57 85.42 189.86 95.13 180.09 101.73 144.85 128.53 165.04 139.03 186.62 142.88 236.82 88.58 221.78 83.07"/><path d="M342,88.37l-24.1-12.2-1.76-4.34L304.73,60.59,296,40.33,284,27.93l-12.8-3.81-17,13.64-16,23.59L214.3,83.08l-10,1.36-15,9.86-9.8,6.62-35.89,27.29v.39l.07.45,21,10.9.14,0h0l21.92,3.91h.05l31.14,2.15,21.72,2.54h81.16l49-6.65,12.43-5,7.92-8.48-25.2-15.91Zm-.67.75,20.19,21.31-12.13-7.66-17.22-3.94-9.07-5.62L321.44,85l-3-7.44Zm-37.44-28L315.2,72.31l5.29,13,1.41,7.19L314.7,88l-4.81-13.11L297,64.54,291.15,51.1l-2.32-1.92,4.29-.48,6.9,3.42ZM249,85.95,239,87.64l15.67-17.33,16.13-4.89L281,77.22h0l.07.07L298.29,91l-17.73,10.19-4.39,3.49Zm15.47,11.85L236,103.92l-24.4,13.38L237.84,89h0l.11-.12L248.73,87Zm17.28-21.26-9.62-11.19h1.66L293,57.9l3.18,7.26L309,75.53l4.83,13.17,6.6,4.09-21.1-2.26Zm-26.91-38,16.57-13.27,12,3.59,11.74,12,4.24,9.9-6.11-3L279,49.27,266.6,45.55l-11.73,5L240.24,60Zm-16,23.58,16.54-10.6,11.32-4.86,12.23,3.68,8.55-1,2.89,2.38L292.63,57l-19.07,7.36-2.39-.07-17,5.16-16.6,18.35L221.89,82l-5.85.8Zm-52.18,80.81L165,139l-20.19-10.5,35.24-26.8,9.78-6.6,14.71-9.72,17.21-2.35,15,5.51Zm31.16,2.18L187.87,143l21.62-23.38,26.82-14.73,29.25-6.31,9.78,6.72-6.35,5-14.84,8.45L233.3,132.12Zm102.94,2.55h-81l-20.52-2.4,14.74-12.28,20.79-13.28,14.68-8.37,20.73,3.83,19.39,6.2,15.58,11.18,31.35,3.7,11.44,5Zm61-11.51-12,4.83-12.94-5.68-31.31-3.72L310,120.45l-19.67-6.31-19.89-3.68,6.58-5.23h0l4.09-3.26,18.17-10.44L322.44,94l9.23,5.72,17.22,3.93,39.67,25Z"/><polygon class="cls-22" points="272.68 46.13 278.84 49.84 293.24 48.1 300.07 51.5 295.59 40.59 283.59 28.26 271.34 24.64 267.55 27.64 272.35 35.63 275.38 41.77 272.68 46.13"/><polygon class="cls-23" points="266.1 128.34 280.5 123.41 299.33 134.51 314.27 148.13 278.78 148.12 251.13 148.1 255.29 138.22 266.1 128.34"/><polygon class="cls-24" points="325.45 131.53 310.01 120.45 290.34 114.14 269.64 110.7 269.21 110.94 280.13 117.3 280.5 123.41 299.33 134.51 314.27 148.13 319.98 148.13 368.23 141.48 369.03 141.28 356.76 135.25 325.45 131.53"/><path class="cls-7" d="M155.68,138.39c-3.87-.34-13.53.78-17.76-1.51-4.56-2.47-9.25-.82-19.17-5.76-6.42-3.2-1.82-3.67,3-4.33.68-.09,20.51-3.8,23.47-1.22,3.55,3.08,6.75,5.13,10.63,6.19,4.81,1.31,5.13,3.13,7.5,5.06C165.89,138.93,160.18,138.78,155.68,138.39Z"/><path class="cls-6" d="M432.79,137.64c-1,4.53-24.83,9-30.64,12.38-3.86,2.26-18.1-2.87-23.42-2.64-4.58.2-25.79,2.62-31.16,2.34-6.28-.33-23.64,1-27.11.29-8.52-1.84,20.28-9.16,20.28-11.72,0-1,17.11-9.74,26.41-4.84,4.47,2.36,10.3-1,14.85-2.93,5.78-2.39,4.06-3.52,9.08-2.05C400.52,131.24,433.38,134.95,432.79,137.64Z"/></g><g id="Clouds"><path class="cls-10" d="M126.67,52.29a104.22,104.22,0,0,1,29.19,3.89,17.9,17.9,0,0,0,10.1,0c7.51-2.18,21.17-5.5,28.79-3.43,10.88,3,22,17.36,22,17.36s15.81,18.8-17.67,24.32a71.85,71.85,0,0,1-23.44.33,17.94,17.94,0,0,0-9.06.79c-6.64,2.39-18.7,5.6-23.46-.46-6.71-8.56-28,3.54-29.72-5S89,77,98.73,65.78C106.3,57,118,53.7,122.81,52.69A18.23,18.23,0,0,1,126.67,52.29Z"/><path class="cls-10" d="M331.28,69.92c21.29-.73,34.24.09,38.85.48a6.26,6.26,0,0,0,3.46-.7c5.51-2.92,25.09-11.34,48.52,1.57,27.73,15.28,6.34,20.29,6.34,20.29s23.93,9.92,16.16,14.29-38,5.43-38,5.43-19.92.39-30.48-5.43c-9.22-5.08-23.61-2.87-27.12-2.23-.8.15-1.61.26-2.42.34-5.5.54-23,1.55-23-7.33,0-3.71-.5-6.26-3.28-8.83-5.12-4.73-13.22-8.45-6.73-12l3.92-2.13A31.2,31.2,0,0,1,331.28,69.92Z"/></g></g></svg>